<?xml version="1.0" standalone="no"?>
<!DOCTYPE svg PUBLIC "-//W3C//DTD SVG 20010904//EN"
 "http://www.w3.org/TR/2001/REC-SVG-20010904/DTD/svg10.dtd">
<svg version="1.0" xmlns="http://www.w3.org/2000/svg"
 width="256.000000pt" height="256.000000pt" viewBox="0 0 256.000000 256.000000"
 preserveAspectRatio="xMidYMid meet">
<metadata>
Created by potrace 1.15, written by Peter Selinger 2001-2017
</metadata>
<g transform="translate(0.000000,256.000000) scale(0.100000,-0.100000)"
fill="#000000" stroke="none">
<path d="M745 2489 c-196 -151 -320 -297 -380 -446 -22 -55 -28 -88 -32 -178
-4 -96 -2 -117 16 -167 26 -67 55 -94 176 -163 125 -71 274 -218 304 -298 11
-32 21 -68 21 -80 0 -12 3 -33 7 -46 5 -21 10 -23 50 -17 58 8 140 44 158 70
22 30 18 82 -10 137 -66 132 -155 223 -325 334 -126 82 -128 84 -150 141 -57
155 -23 421 70 545 22 29 78 95 125 146 48 51 80 93 73 93 -7 -1 -53 -32 -103
-71z"/>
<path d="M1668 2530 c94 -68 213 -250 248 -381 23 -86 22 -249 -3 -349 l-18
-75 -130 -88 c-272 -186 -373 -297 -374 -412 -1 -51 44 -130 112 -197 35 -35
67 -75 70 -89 11 -45 -10 -88 -76 -159 -86 -90 -119 -160 -125 -259 -4 -66 -1
-86 21 -141 19 -46 23 -68 16 -81 -13 -25 -79 -69 -104 -69 -11 0 -55 18 -98
40 -74 38 -78 39 -72 18 10 -33 41 -57 92 -70 55 -13 77 -48 49 -76 -12 -13
-34 -17 -81 -17 -81 0 -81 -18 1 -26 87 -8 97 -15 92 -60 -3 -36 -2 -39 22
-39 31 0 119 40 166 76 19 15 55 55 80 89 73 104 116 222 159 445 22 113 24
120 40 120 16 0 61 52 70 80 4 11 11 18 16 14 15 -9 69 6 69 20 0 6 -15 18
-34 24 -43 16 -86 49 -86 67 0 29 61 82 156 135 108 60 189 133 219 195 22 45
35 195 17 195 -6 0 -90 -59 -186 -131 -243 -180 -310 -212 -361 -175 -19 14
-19 15 -1 71 14 45 33 72 89 132 72 76 227 188 338 243 62 32 63 32 80 134 46
271 -115 574 -415 785 -33 22 -68 41 -79 41 -15 0 -10 -7 21 -30z"/>
<path d="M350 1329 c12 -42 52 -92 111 -139 89 -70 209 -129 209 -102 0 19
-88 128 -141 175 -56 49 -140 97 -170 97 -15 0 -16 -5 -9 -31z"/>
<path d="M766 867 c-66 -16 -73 -37 -12 -37 40 0 47 -3 61 -30 20 -38 67 -63
105 -55 24 5 33 0 65 -37 20 -24 51 -69 68 -100 18 -32 35 -58 40 -58 17 0 5
65 -23 126 -80 177 -157 225 -304 191z"/>
</g>
</svg>
